<svg width="14" height="10" viewBox="0 0 14 10" fill="none" xmlns="http://www.w3.org/2000/svg">
<path d="M5.61318 4.6204C5.61318 4.6204 6.92918 4.51828 6.92918 2.91075C6.93 1.3024 5.85282 0.517578 4.48906 0.517578H0V9.50393H4.48906C4.48906 9.50393 7.22894 9.59452 7.22894 6.85052C7.22894 6.85052 7.34835 4.6204 5.61318 4.6204ZM1.97812 2.11523H4.48823C4.48823 2.11523 5.09847 2.11523 5.09847 3.05075C5.09847 3.98546 4.73941 4.12134 4.33259 4.12134H1.97812V2.11523ZM4.36141 7.90711H1.97812V5.50487H4.48823C4.48823 5.50487 5.39741 5.49334 5.39741 6.73852C5.39824 7.79017 4.71882 7.89887 4.36141 7.90711ZM10.8829 2.80452C7.56659 2.80452 7.56988 6.25593 7.56988 6.25593C7.56988 6.25593 7.34176 9.69252 10.8829 9.69252C10.8829 9.69252 13.8345 9.86875 13.8345 7.30264H12.3175C12.3175 7.30264 12.3678 8.26946 10.934 8.26946C10.934 8.26946 9.41459 8.37569 9.41459 6.70475H13.8855C13.8855 6.70393 14.3739 2.80452 10.8829 2.80452ZM12.2327 5.50487H9.39976C9.39976 5.50487 9.58506 4.12134 10.9175 4.12134C12.2484 4.12052 12.2327 5.50487 12.2327 5.50487ZM12.5852 1.04711H9.02753V2.15475H12.5852V1.04711Z" fill="black"/>
</svg>
