<svg width="29" height="15" viewBox="0 0 29 15" fill="none" xmlns="http://www.w3.org/2000/svg">
<rect y="0.046875" width="29" height="14" fill="#F5F5F5"/>
<g clip-path="url(#clip0_1_181)">
<path d="M14.5256 4.9757C13.5144 3.17793 12.4331 1.71288 12.3532 1.60582C10.7226 2.37746 9.50541 3.87958 9.12576 5.6897C9.27894 5.69299 11.7166 5.72182 14.5256 4.9757ZM15.2536 6.94064C15.3302 6.91593 15.4076 6.89287 15.4842 6.87146C15.3376 6.53876 15.1771 6.20605 15.0091 5.87664C11.9982 6.7784 9.10682 6.71335 9.00471 6.71005C9.00306 6.77182 9.00059 6.83358 9.00059 6.89617C9.00059 8.39993 9.56882 9.77029 10.5011 10.8071C10.5002 10.8055 10.4978 10.8013 10.4978 10.8013C10.4978 10.8013 12.0979 7.96182 15.2536 6.94064ZM11.2538 11.5071L11.2546 11.5038C11.2118 11.4701 11.1656 11.4396 11.1228 11.4033C11.2002 11.4659 11.2538 11.5071 11.2538 11.5071ZM13.4476 1.21711C13.4419 1.21876 13.4378 1.21958 13.432 1.2204C13.4411 1.21876 13.4476 1.21793 13.4476 1.21711ZM18.7116 2.50593C17.6822 1.5984 16.33 1.04664 14.8493 1.04664C14.3733 1.04664 13.9129 1.10429 13.4715 1.21135C13.5605 1.32911 14.6574 2.78758 15.658 4.62323C17.8626 3.79723 18.696 2.53064 18.7116 2.50593ZM14.8485 13.7446C11.0668 13.7446 8 10.6778 8 6.89535C8 3.11287 11.0668 0.046875 14.8485 0.046875C18.6301 0.046875 21.6969 3.1137 21.6969 6.89535C21.6969 10.677 18.6309 13.7446 14.8485 13.7446ZM15.8433 7.85311C12.4108 9.04887 11.2776 11.4561 11.2546 11.5046C12.2469 12.2804 13.4921 12.7465 14.8485 12.7465C15.658 12.7465 16.4305 12.5802 17.1313 12.2829C17.0448 11.7706 16.7047 9.97864 15.882 7.84158C15.8696 7.84488 15.8573 7.84899 15.8433 7.85311ZM16.1068 5.49535C16.2444 5.7737 16.3745 6.05782 16.4964 6.34358C16.54 6.44405 16.582 6.54535 16.6224 6.64499C18.6425 6.39135 20.6321 6.82205 20.6964 6.83687C20.6824 5.4484 20.1866 4.17688 19.3664 3.1804C19.354 3.19852 18.416 4.5524 16.1068 5.49535ZM16.9781 7.56982C17.7465 9.6797 18.0586 11.3976 18.1171 11.7468C19.4298 10.8598 20.3645 9.45487 20.6247 7.82346C20.5078 7.7864 18.8698 7.26676 16.9781 7.56982Z" fill="black"/>
</g>
<defs>
<clipPath id="clip0_1_181">
<rect width="14" height="14" fill="white" transform="translate(8 0.046875)"/>
</clipPath>
</defs>
</svg>
