<svg width="14" height="15" viewBox="0 0 14 15" fill="none" xmlns="http://www.w3.org/2000/svg">
<path d="M11.2313 7.04605C11.2313 9.38323 9.33471 11.2782 6.99835 11.2782C4.66118 11.2782 2.76706 9.38323 2.76706 7.04605C2.76706 6.7677 2.79424 6.49593 2.84612 6.2324H0V11.8579C0 13.0661 0.979176 14.0452 2.18729 14.0452H11.8111C13.0167 14.0452 13.9984 13.0661 13.9984 11.8579V6.2324H11.1522C11.2041 6.49593 11.2313 6.7677 11.2313 7.04605ZM11.8111 0.046875H2.18729C0.979176 0.046875 0 1.02605 0 2.23417V4.60429H3.54365C4.30953 3.52135 5.572 2.81393 6.99835 2.81393C8.42635 2.81393 9.68882 3.52052 10.4531 4.60429H13.9984V2.23417C13.9984 1.02605 13.0167 0.046875 11.8111 0.046875ZM12.8808 2.74887C12.8808 2.96382 12.7038 3.14005 12.4896 3.14005H11.3169C11.1012 3.14005 10.9266 2.96464 10.9266 2.74887V1.57699C10.9266 1.36205 11.1012 1.18582 11.3169 1.18582H12.4896C12.7038 1.18582 12.8808 1.36123 12.8808 1.57699V2.74887ZM9.60235 7.04605C9.60235 5.60735 8.43706 4.44123 6.99835 4.44123C5.56129 4.44123 4.39435 5.60817 4.39435 7.04605C4.39435 8.48393 5.56129 9.64923 6.99835 9.64923C8.43706 9.64923 9.60235 8.48393 9.60235 7.04605Z" fill="black"/>
</svg>
