<svg width="14" height="14" viewBox="0 0 14 14" fill="none" xmlns="http://www.w3.org/2000/svg">
<path d="M6.63106 10.3031L4.40753 8.22695C4.23212 8.06307 3.948 8.06307 3.77259 8.22695L0 11.7418V12.2202C0 12.6666 0.391176 13.0298 0.868823 13.0298H13.0282C13.5059 13.0298 13.8971 12.6666 13.8971 12.2202V11.7418L10.1245 8.2253C9.94823 8.06307 9.66329 8.06307 9.48953 8.2253L7.266 10.3014C7.09059 10.4661 6.80647 10.4661 6.63106 10.3031ZM11.3573 7.07648L13.58 9.1526C13.7546 9.31648 13.8971 9.25389 13.8971 9.01424V4.54742C13.8971 4.30695 13.7546 4.24518 13.58 4.40907L11.3573 6.48518C11.1811 6.64824 11.1811 6.9126 11.3573 7.07648ZM0.868823 0.870361C0.391176 0.870361 0 1.23518 0 1.68071V1.82648L6.59729 8.00624C6.77188 8.17013 7.05518 8.17013 7.22976 8.00624L13.8971 1.75318V1.68071C13.8971 1.23518 13.5059 0.870361 13.0282 0.870361H0.868823ZM0 4.54742V9.01424C0 9.25389 0.142471 9.31648 0.317059 9.1526L2.53976 7.07648C2.716 6.9126 2.716 6.64824 2.53976 6.48436L0.317059 4.40907C0.142471 4.24518 0 4.30695 0 4.54742Z" fill="black"/>
</svg>
