<svg width="14" height="12" viewBox="0 0 14 12" fill="none" xmlns="http://www.w3.org/2000/svg">
<path d="M14 1.94887C13.4843 2.17676 12.9313 2.33154 12.3503 2.40076C12.943 2.04532 13.3988 1.48221 13.6127 0.812539C13.0589 1.14154 12.4437 1.38032 11.7895 1.50865C11.2653 0.950983 10.5179 0.602539 9.69265 0.602539C8.10676 0.602539 6.82032 1.88743 6.82032 3.47409C6.82032 3.69887 6.84521 3.91821 6.89498 4.12898C4.50721 4.00843 2.39087 2.86509 0.974541 1.12832C0.727207 1.55221 0.585652 2.04609 0.585652 2.57109C0.585652 3.56821 1.09276 4.44709 1.86354 4.96198C1.39299 4.94721 0.949652 4.8181 0.562319 4.60343C0.562319 4.6151 0.562319 4.62676 0.562319 4.63921C0.562319 6.03065 1.55243 7.19265 2.8661 7.45554C2.62499 7.52087 2.37143 7.55587 2.10932 7.55587C1.92499 7.55587 1.74454 7.53954 1.56954 7.50532C1.93432 8.6471 2.99599 9.47698 4.2521 9.50032C3.26976 10.2703 2.03154 10.7292 0.685985 10.7292C0.45343 10.7292 0.225541 10.7152 0.000762939 10.688C1.27165 11.5039 2.78132 11.9783 4.40376 11.9783C9.68643 11.9783 12.5759 7.60176 12.5759 3.80698C12.5759 3.68176 12.5728 3.55732 12.5665 3.43443C13.1273 3.03154 13.615 2.52521 14 1.94887Z" fill="black"/>
</svg>
